<?xml version="1.0" standalone="no"?>
<!DOCTYPE svg PUBLIC "-//W3C//DTD SVG 20010904//EN"
 "http://www.w3.org/TR/2001/REC-SVG-20010904/DTD/svg10.dtd">
<svg version="1.0" xmlns="http://www.w3.org/2000/svg"
 width="512.000000pt" height="512.000000pt" viewBox="0 0 512.000000 512.000000"
 preserveAspectRatio="xMidYMid meet">
<metadata>
Created by potrace 1.14, written by Peter Selinger 2001-2017
</metadata>
<g transform="translate(0.000000,512.000000) scale(0.100000,-0.100000)"
fill="#000000" stroke="none">
<path d="M1822 4774 c-169 -49 -293 -137 -401 -283 -173 -235 -222 -552 -130
-840 94 -295 324 -508 599 -555 288 -48 592 114 748 400 25 47 71 166 79 204
30 148 37 310 18 405 -65 324 -262 570 -527 659 -73 24 -96 28 -203 31 -82 2
-115 -1 -183 -21z"/>
<path d="M3515 4393 c-314 -51 -561 -290 -647 -624 -29 -115 -29 -302 0 -410
84 -313 325 -511 622 -512 88 0 222 29 267 59 12 8 27 14 33 14 24 0 139 87
208 158 196 201 284 497 227 767 -52 246 -203 433 -417 513 -80 30 -221 47
-293 35z"/>
<path d="M474 3796 c-197 -44 -371 -208 -436 -411 -29 -93 -37 -157 -33 -271
3 -91 9 -127 35 -207 110 -330 387 -544 690 -533 126 5 192 25 300 94 200 126
312 399 276 672 -9 70 -56 212 -91 276 -158 288 -459 442 -741 380z"/>
<path d="M4390 3074 c-269 -57 -495 -265 -585 -537 -25 -80 -30 -116 -30 -242
1 -140 21 -220 82 -324 75 -127 227 -241 353 -265 19 -3 46 -8 60 -11 40 -9
161 -6 215 4 190 37 354 144 479 311 205 275 204 664 -2 886 -72 78 -147 130
-227 156 -118 38 -232 46 -345 22z"/>
<path d="M2162 2960 c-219 -40 -397 -120 -572 -259 -111 -88 -202 -197 -317
-376 -53 -82 -115 -179 -138 -215 -73 -112 -119 -184 -130 -203 -5 -9 -46 -72
-89 -140 -44 -67 -95 -147 -114 -177 -19 -30 -42 -66 -51 -80 -26 -37 -69
-148 -86 -224 -31 -133 -23 -293 21 -424 105 -308 406 -530 724 -534 142 -2
220 15 390 83 128 51 305 93 440 105 56 4 225 5 265 0 114 -13 151 -20 244
-42 57 -13 124 -33 149 -44 24 -11 49 -20 54 -20 5 0 27 -9 50 -20 106 -51
300 -76 428 -55 238 39 442 174 559 373 43 72 85 176 95 232 3 19 8 46 11 60
9 42 7 202 -4 256 -26 134 -66 217 -213 441 -40 62 -80 125 -89 140 -31 53
-389 605 -417 643 -55 75 -254 270 -275 270 -3 0 -33 18 -67 41 -105 70 -260
132 -410 164 -115 25 -333 27 -458 5z"/>
</g>
</svg>
